<svg version="1.1" id="Layer_1" xmlns="http://www.w3.org/2000/svg" xmlns:xlink="http://www.w3.org/1999/xlink" x="0px" y="0px"
	 width="100%" viewBox="0 0 600 600" enable-background="new 0 0 600 600" xml:space="preserve">
<path fill="#000000" opacity="1.000000" stroke="none" 
	d="
M273.000000,601.000000 
	C182.000000,601.000000 91.500000,601.000000 1.000000,601.000000 
	C1.000000,401.000000 1.000000,201.000000 1.000000,1.000000 
	C201.000000,1.000000 401.000000,1.000000 601.000000,1.000000 
	C601.000000,201.000000 601.000000,401.000000 601.000000,601.000000 
	C491.833344,601.000000 382.666656,601.000000 273.000000,601.000000 
M422.887878,295.742645 
	C423.579071,265.784363 424.359436,235.827774 424.937683,205.867294 
	C425.586639,172.242584 427.015167,138.683868 431.712067,105.330025 
	C432.807709,97.549652 433.336578,89.689461 434.213715,80.998871 
	C431.185822,82.860329 429.045074,84.086205 426.996094,85.449959 
	C404.974243,100.107101 382.892212,114.662697 358.619019,125.466667 
	C351.527557,128.623077 344.008636,131.009720 337.331146,134.866730 
	C322.366211,143.510696 306.978821,151.758041 293.233276,162.117157 
	C247.373108,196.679001 202.107651,232.032043 156.746628,267.252319 
	C148.231018,273.864258 140.324905,281.261139 131.596588,288.760590 
	C136.445572,294.829102 140.466537,301.054352 145.629150,306.114990 
	C167.496338,327.550140 189.542328,348.809845 211.851151,369.784668 
	C223.473206,380.711731 235.777222,390.913513 247.984329,402.062561 
	C264.917908,414.696747 281.478790,427.873749 298.882477,439.823273 
	C319.166626,453.750610 340.176361,466.622345 360.896729,479.912415 
	C366.350677,483.410614 371.754974,487.024994 377.432129,490.128662 
	C390.847656,497.462860 404.401398,504.545105 417.936890,511.657623 
	C419.314392,512.381470 420.947510,512.618835 422.817810,513.190796 
	C422.817810,508.768433 422.925842,504.957581 422.801056,501.154358 
	C421.638153,465.719604 420.044525,430.293213 419.404449,394.849457 
	C419.071198,376.396149 420.357941,357.911407 420.990356,339.443512 
	C421.479828,325.150360 422.089630,310.861328 422.887878,295.742645 
z"/>
<path fill="#C3A1E4" opacity="1.000000" stroke="none" 
	d="
M247.773209,401.442932 
	C235.777222,390.913513 223.473206,380.711731 211.851151,369.784668 
	C189.542328,348.809845 167.496338,327.550140 145.629150,306.114990 
	C140.466537,301.054352 136.445572,294.829102 131.596588,288.760590 
	C140.324905,281.261139 148.231018,273.864258 156.746628,267.252319 
	C202.107651,232.032043 247.373108,196.679001 293.233276,162.117157 
	C306.978821,151.758041 322.366211,143.510696 337.331146,134.866730 
	C344.008636,131.009720 351.527557,128.623077 358.619019,125.466667 
	C382.892212,114.662697 404.974243,100.107101 426.996094,85.449959 
	C429.045074,84.086205 431.185822,82.860329 434.213715,80.998871 
	C433.336578,89.689461 432.807709,97.549652 431.712067,105.330025 
	C427.015167,138.683868 425.586639,172.242584 424.937683,205.867294 
	C424.359436,235.827774 423.579071,265.784363 422.426086,296.253540 
	C415.463196,300.090393 409.066254,303.642303 402.440460,306.697968 
	C385.696869,314.419800 368.414703,321.092438 352.135010,329.677185 
	C317.346619,348.022095 285.886353,371.590240 254.041565,394.485901 
	C251.565018,396.266510 249.844910,399.099213 247.773209,401.442932 
M228.613876,302.998077 
	C228.182724,301.795746 227.751587,300.593384 227.257217,299.214752 
	C229.962128,298.076965 232.936127,297.609253 234.675903,295.891479 
	C236.746475,293.847107 237.757446,290.729523 239.227524,288.076935 
	C236.976669,287.072357 234.577545,284.976501 232.501541,285.258575 
	C224.923920,286.288300 221.137421,283.024994 216.957413,276.748779 
	C208.328110,263.792053 206.740143,266.049286 198.828766,276.712952 
	C194.897934,282.011292 190.692108,284.943390 184.050629,284.895599 
	C182.244202,284.882599 179.497360,286.470367 178.812988,288.036224 
	C177.604126,290.802246 181.350983,297.311127 184.366745,298.077881 
	C188.832901,299.213470 189.847778,301.584137 188.426086,305.722290 
	C187.787613,307.580750 187.849487,309.668030 187.359421,311.591827 
	C186.429794,315.240997 185.215317,318.857635 190.892899,319.617371 
	C191.574982,319.708618 192.290619,320.476135 192.757263,321.103790 
	C196.481750,326.113281 196.544876,326.164337 201.083557,322.146942 
	C202.825500,320.605072 204.678513,319.074432 206.003174,317.200867 
	C208.274857,313.987885 210.361633,314.628204 213.032547,316.637054 
	C216.880783,319.531403 220.941086,322.143860 224.911728,324.875366 
	C227.341431,326.546783 229.311447,325.853455 230.881577,323.616058 
	C233.177704,320.344147 234.513718,316.881744 232.779526,312.870178 
	C231.459778,309.817383 230.193802,306.741364 228.613876,302.998077 
z"/>
<path fill="#5235A5" opacity="1.000000" stroke="none" 
	d="
M247.878769,401.752747 
	C249.844910,399.099213 251.565018,396.266510 254.041565,394.485901 
	C285.886353,371.590240 317.346619,348.022095 352.135010,329.677185 
	C368.414703,321.092438 385.696869,314.419800 402.440460,306.697968 
	C409.066254,303.642303 415.463196,300.090393 422.305115,296.667450 
	C422.089630,310.861328 421.479828,325.150360 420.990356,339.443512 
	C420.357941,357.911407 419.071198,376.396149 419.404449,394.849457 
	C420.044525,430.293213 421.638153,465.719604 422.801056,501.154358 
	C422.925842,504.957581 422.817810,508.768433 422.817810,513.190796 
	C420.947510,512.618835 419.314392,512.381470 417.936890,511.657623 
	C404.401398,504.545105 390.847656,497.462860 377.432129,490.128662 
	C371.754974,487.024994 366.350677,483.410614 360.896729,479.912415 
	C340.176361,466.622345 319.166626,453.750610 298.882477,439.823273 
	C281.478790,427.873749 264.917908,414.696747 247.878769,401.752747 
z"/>
<path fill="#FCCD31" opacity="1.000000" stroke="none" 
	d="
M228.758896,303.336853 
	C230.193802,306.741364 231.459778,309.817383 232.779526,312.870178 
	C234.513718,316.881744 233.177704,320.344147 230.881577,323.616058 
	C229.311447,325.853455 227.341431,326.546783 224.911728,324.875366 
	C220.941086,322.143860 216.880783,319.531403 213.032547,316.637054 
	C210.361633,314.628204 208.274857,313.987885 206.003174,317.200867 
	C204.678513,319.074432 202.825500,320.605072 201.083557,322.146942 
	C196.544876,326.164337 196.481750,326.113281 192.757263,321.103790 
	C192.290619,320.476135 191.574982,319.708618 190.892899,319.617371 
	C185.215317,318.857635 186.429794,315.240997 187.359421,311.591827 
	C187.849487,309.668030 187.787613,307.580750 188.426086,305.722290 
	C189.847778,301.584137 188.832901,299.213470 184.366745,298.077881 
	C181.350983,297.311127 177.604126,290.802246 178.812988,288.036224 
	C179.497360,286.470367 182.244202,284.882599 184.050629,284.895599 
	C190.692108,284.943390 194.897934,282.011292 198.828766,276.712952 
	C206.740143,266.049286 208.328110,263.792053 216.957413,276.748779 
	C221.137421,283.024994 224.923920,286.288300 232.501541,285.258575 
	C234.577545,284.976501 236.976669,287.072357 239.227509,288.076935 
	C237.757446,290.729523 236.746475,293.847107 234.675903,295.891479 
	C232.936127,297.609253 229.962128,298.076965 227.257217,299.214752 
	C227.751587,300.593384 228.182724,301.795746 228.758896,303.336853 
z"/>
</svg>