<svg version="1.1" id="Layer_1" xmlns="http://www.w3.org/2000/svg" xmlns:xlink="http://www.w3.org/1999/xlink" x="0px" y="0px"
	 width="100%" viewBox="0 0 600 600" enable-background="new 0 0 600 600" xml:space="preserve">
<path fill="#000000" opacity="1.000000" stroke="none" 
	d="
M273.000000,601.000000 
	C182.000000,601.000000 91.500000,601.000000 1.000000,601.000000 
	C1.000000,401.000000 1.000000,201.000000 1.000000,1.000000 
	C201.000000,1.000000 401.000000,1.000000 601.000000,1.000000 
	C601.000000,201.000000 601.000000,401.000000 601.000000,601.000000 
	C491.833344,601.000000 382.666656,601.000000 273.000000,601.000000 
M179.151184,297.554138 
	C179.169907,299.549713 179.145676,301.546753 179.213699,303.540649 
	C180.387726,337.948608 182.278549,372.351105 182.527634,406.765503 
	C182.718857,433.184296 180.764786,459.615540 179.931870,486.046539 
	C179.652283,494.918488 179.887650,503.806702 179.887650,513.230286 
	C181.668411,512.492249 183.528488,511.910248 185.205536,510.993500 
	C192.491928,507.010590 199.490723,502.413696 207.027191,498.994690 
	C221.794495,492.295441 235.844254,484.577515 248.500473,474.343903 
	C252.876236,470.805756 257.744263,467.844299 262.537140,464.859955 
	C279.622009,454.221802 297.190308,444.297974 313.767792,432.926178 
	C327.835236,423.276245 340.786743,411.999512 354.870972,401.171997 
	C355.532043,400.673065 356.246094,400.230591 356.846588,399.667145 
	C390.347839,368.230438 423.930359,336.879181 457.234009,305.234436 
	C462.195465,300.520081 465.841095,294.420929 470.165222,288.872894 
	C468.241455,287.097931 466.930573,285.829590 465.558563,284.631226 
	C421.621155,246.254227 375.256744,210.923386 328.494659,176.130005 
	C304.795929,158.496948 280.593811,141.713974 253.020157,130.018967 
	C228.378647,119.567596 204.985046,106.374229 183.133713,90.676353 
	C178.460312,87.319000 173.409195,84.487419 167.935532,81.037651 
	C168.152130,84.011414 168.234390,86.153656 168.474670,88.278023 
	C170.269882,104.150162 172.982391,119.976791 173.736771,135.896835 
	C175.556671,174.302521 176.456070,212.751709 177.746948,251.182663 
	C178.255249,266.315186 178.817612,281.445923 179.151184,297.554138 
z"/>
<path fill="#C3A1E4" opacity="1.000000" stroke="none" 
	d="
M179.355347,296.577454 
	C178.817612,281.445923 178.255249,266.315186 177.746948,251.182663 
	C176.456070,212.751709 175.556671,174.302521 173.736771,135.896835 
	C172.982391,119.976791 170.269882,104.150162 168.474670,88.278023 
	C168.234390,86.153656 168.152130,84.011414 167.935532,81.037651 
	C173.409195,84.487419 178.460312,87.319000 183.133713,90.676353 
	C204.985046,106.374229 228.378647,119.567596 253.020157,130.018967 
	C280.593811,141.713974 304.795929,158.496948 328.494659,176.130005 
	C375.256744,210.923386 421.621155,246.254227 465.558563,284.631226 
	C466.930573,285.829590 468.241455,287.097931 470.165222,288.872894 
	C465.841095,294.420929 462.195465,300.520081 457.234009,305.234436 
	C423.930359,336.879181 390.347839,368.230438 356.846588,399.667145 
	C356.246094,400.230591 355.532043,400.673065 354.434174,400.954285 
	C350.990356,397.904968 348.222931,394.751312 344.931213,392.302429 
	C335.199127,385.062195 325.401337,377.892517 315.373688,371.070953 
	C290.784729,354.343689 266.493073,337.076691 239.516907,324.252472 
	C219.582611,314.775940 199.417587,305.784821 179.355347,296.577454 
M369.527252,320.860962 
	C373.050476,326.898865 373.544525,327.099396 379.462616,323.378510 
	C382.833862,321.258911 386.064575,318.893433 389.217773,316.456482 
	C391.740692,314.506622 393.662720,314.179962 395.882416,317.044159 
	C397.695709,319.383972 400.128113,321.246979 402.305054,323.301239 
	C404.940887,325.788544 407.057709,325.930023 408.873016,322.239349 
	C409.516815,320.930359 411.042328,319.320129 412.304382,319.189331 
	C415.946991,318.811829 415.577850,316.593292 415.202240,314.221375 
	C414.864960,312.091339 414.524139,309.943695 413.933777,307.875488 
	C412.527832,302.950195 412.328583,299.401123 418.755402,297.332642 
	C421.093140,296.580261 421.881683,291.014404 423.377075,287.644714 
	C420.969482,286.720886 418.464966,285.988831 416.175537,284.831299 
	C412.045044,282.742950 407.748230,280.791656 404.086365,278.032562 
	C401.428772,276.030121 399.565826,272.902191 397.560577,270.123108 
	C395.138306,266.766113 392.517151,267.763550 390.510468,270.064484 
	C387.252258,273.800385 384.187225,277.777161 381.596130,281.993622 
	C380.188416,284.284332 378.982941,285.329132 376.214264,285.192902 
	C372.759491,285.022888 369.262787,285.418365 365.801483,285.749939 
	C362.496674,286.066559 361.859161,288.475586 363.276093,290.740143 
	C364.779022,293.142151 367.019928,295.207916 369.295227,296.956421 
	C370.775665,298.094116 372.893372,298.402496 374.966064,299.171661 
	C373.154510,303.426636 371.180664,307.137695 370.024353,311.088013 
	C369.184753,313.956390 369.426971,317.141357 369.527252,320.860962 
z"/>
<path fill="#5235A5" opacity="1.000000" stroke="none" 
	d="
M179.253265,297.065796 
	C199.417587,305.784821 219.582611,314.775940 239.516907,324.252472 
	C266.493073,337.076691 290.784729,354.343689 315.373688,371.070953 
	C325.401337,377.892517 335.199127,385.062195 344.931213,392.302429 
	C348.222931,394.751312 350.990356,397.904968 354.114685,401.089600 
	C340.786743,411.999512 327.835236,423.276245 313.767792,432.926178 
	C297.190308,444.297974 279.622009,454.221802 262.537140,464.859955 
	C257.744263,467.844299 252.876236,470.805756 248.500473,474.343903 
	C235.844254,484.577515 221.794495,492.295441 207.027191,498.994690 
	C199.490723,502.413696 192.491928,507.010590 185.205536,510.993500 
	C183.528488,511.910248 181.668411,512.492249 179.887650,513.230286 
	C179.887650,503.806702 179.652283,494.918488 179.931870,486.046539 
	C180.764786,459.615540 182.718857,433.184296 182.527634,406.765503 
	C182.278549,372.351105 180.387726,337.948608 179.213699,303.540649 
	C179.145676,301.546753 179.169907,299.549713 179.253265,297.065796 
z"/>
<path fill="#FCCD31" opacity="1.000000" stroke="none" 
	d="
M369.357056,320.523071 
	C369.426971,317.141357 369.184753,313.956390 370.024353,311.088013 
	C371.180664,307.137695 373.154510,303.426636 374.966064,299.171661 
	C372.893372,298.402496 370.775665,298.094116 369.295227,296.956421 
	C367.019928,295.207916 364.779022,293.142151 363.276093,290.740143 
	C361.859161,288.475586 362.496674,286.066559 365.801483,285.749939 
	C369.262787,285.418365 372.759491,285.022888 376.214264,285.192902 
	C378.982941,285.329132 380.188416,284.284332 381.596130,281.993622 
	C384.187225,277.777161 387.252258,273.800385 390.510468,270.064484 
	C392.517151,267.763550 395.138306,266.766113 397.560577,270.123108 
	C399.565826,272.902191 401.428772,276.030121 404.086365,278.032562 
	C407.748230,280.791656 412.045044,282.742950 416.175537,284.831299 
	C418.464966,285.988831 420.969482,286.720886 423.377075,287.644714 
	C421.881683,291.014404 421.093140,296.580261 418.755402,297.332642 
	C412.328583,299.401123 412.527832,302.950195 413.933777,307.875488 
	C414.524139,309.943695 414.864960,312.091339 415.202240,314.221375 
	C415.577850,316.593292 415.946991,318.811829 412.304382,319.189331 
	C411.042328,319.320129 409.516815,320.930359 408.873016,322.239349 
	C407.057709,325.930023 404.940887,325.788544 402.305054,323.301239 
	C400.128113,321.246979 397.695709,319.383972 395.882416,317.044159 
	C393.662720,314.179962 391.740692,314.506622 389.217773,316.456482 
	C386.064575,318.893433 382.833862,321.258911 379.462616,323.378510 
	C373.544525,327.099396 373.050476,326.898865 369.357056,320.523071 
z"/>
</svg>